# xmcd
# 
# Track frame offsets:
#     150
#     90572
#     97600
#     164310
# 
# Disc length: 2647
# 
# Revision: 0
# Processed by: cddbd v1.5.2PL0 Copyright (c) Steve Scherf et al.
# Submitted via: BonkEnc v1.0.6
# 
DISCID=1d0a5504
DTITLE=渡辺貞夫 - Round Trip
DYEAR=1970
DGENRE=Contemporary Jazz
TTITLE0=Round Trip: Going and Coming
TTITLE1=Nostargia
TTITLE2=Pastoral
TTITLE3=Sao Paulo
EXTD=
EXTT0=
EXTT1=
EXTT2=
EXTT3=
PLAYORDER=
